# xmcd
#
# Track frame offsets:
#	150
#	20280
#	35343
#	52385
#
# Disc length: 1017 seconds
#
# Revision: 0
# Processed by: cddbd v1.5.1PL2 Copyright (c) Steve Scherf et al.
# Submitted via: dBpowerAMP V4.0
#
DISCID=2e03f704
DTITLE=Dwight Yoakam - A Thousand Miles From Nowhere
DYEAR=1993
DGENRE=Country
TTITLE0=A Thousand Miles From Nowhere
TTITLE1=Ain't That Lonely Yet
TTITLE2=What I Don't Know
TTITLE3=Long White Cadillac
EXTD=
EXTT0=
EXTT1=
EXTT2=
EXTT3=
PLAYORDER=
